<?xml version="1.0" encoding="UTF-8" standalone="no"?>
<svg id="svg2" xmlns:rdf="http://www.w3.org/1999/02/22-rdf-syntax-ns#" xmlns="http://www.w3.org/2000/svg" height="293.1mm" width="372.42mm" version="1.1" xmlns:cc="http://creativecommons.org/ns#" xmlns:dc="http://purl.org/dc/elements/1.1/" viewBox="0 0 1319.6088 1038.5367">
<g id="layer1" transform="translate(-2737 78.351)">
<path id="path4166" stroke-linejoin="round" d="m654.09 10.451c-6.5 0.015-12.97 0.05-19.38 0.106-187.11 1.219-385.87 5.183-551.58 93.703-63.686 54.65-63.996 143.05-72.183 226.19 0 0-1.5211 35.21 1.576 52.19 6.332 33.42 37.985 56.13 70.651 59.18 58.476 3.76 121.86-1.68 171.2-36.26 26.96-19.25 36.05-53.86 34.88-85.49l0.67-78.1c0.73-28.44 12.93-56.18 34.41-75.15 37.17-36.99 90.51-50.07 140.32-60.19 64.34-12.139 129.77-14.341 195.15-13.816 65.39-0.525 130.82 1.677 195.16 13.816 49.81 10.12 103.15 23.2 140.32 60.19 21.52 18.97 33.72 46.71 34.42 75.15l0.7 78.1c-1.2 31.63 7.9 66.24 34.8 85.49 49.4 34.58 112.8 40.02 171.2 36.26 32.7-3.05 64.4-25.76 70.7-59.18 3.1-16.98 1.6-52.19 1.6-52.19-8.2-83.14-8.5-171.54-72.2-226.19-165.7-88.52-364.49-92.484-551.6-93.703-6.42-0.056-12.88-0.091-19.38-0.106-1.89-0.004-3.82 0.007-5.72 0.006-1.9 0.001-3.82-0.01-5.71-0.006zm-168.71 213.38c-18.75-0.05-37.77 0.58-56.37 0.16l-1 1v146.08c-72.93 117.03-160.29 232.4-230.47 351.12-19.3 32.3-35.58 67.44-37.86 105.57-5.81 66.2-5.43 132.74-5.53 199.14 31.64 2.3 65.07 0.3 97.39 1h910.06c2.3-31.59 0.3-64.99 1-97.28-1.3-47.7 2.2-96.38-8.6-143.23-14.4-42.77-41.3-79.9-63.6-118.78-62-101.41-137.01-202.02-199.76-302.99v-140.63c-29.06-2.33-59.92-0.33-89.68-1-2.33 31.63-0.33 65.06-1 97.39v37.55h-281.27v-133.94c-10.9-0.87-22.05-1.14-33.31-1.16zm167.25 206.6c7.64 0.13 15.26 2.34 21.68 6.5 21.26 12 23.76 44.43 7.15 61.33-17.18 19.74-52.82 13.65-64.3-9.23-14.22-23.97 6.19-58.79 33.94-58.6 0.51-0.01 1.02-0.01 1.53 0zm-110.06 35.48c12.71-0.34 25.08 6.28 32.57 16.41 14.51 17.23 8.29 45.65-10.35 57.25-19.85 14.27-50.89 3.39-58.94-19.27-10.77-24.25 10.44-54.95 36.72-54.39zm217.13 0.12c0.43-0.01 0.85-0.01 1.28 0 7.84-0.11 15.73 2 22.38 6.18 21.61 11.84 24.39 44.76 7.48 61.73-17.48 19.91-53.9 13.27-64.69-10.42-13.11-23.69 6.76-56.98 33.55-57.49zm-286.68 93.12h1.29c7.75-0.13 15.53 1.96 22.14 6.02 21.29 11.48 24.67 43.44 8.8 60.77-16.96 21-54.52 15.05-65.61-9.03-13.37-23.67 6.49-57.25 33.38-57.76zm356.81 0.01c7.75 0.05 15.46 2.42 21.95 6.66 20.92 12.09 23.36 44.11 7.01 60.95-16.97 19.75-52.44 14.06-64.17-8.53-14.77-23.94 5.67-59.38 33.66-59.06 0.52-0.02 1.03-0.03 1.55-0.02zm-356.39 115.09c0.43 0 0.87 0 1.31 0.02 7.74-0.09 15.48 2.13 22.04 6.24 21.35 11.75 24.23 44.1 7.86 61.18-17.09 20.21-53.46 14.18-64.78-9.17-13.92-23.81 6.27-58.09 33.57-58.27zm353.91 0.01c0.43 0 0.86 0 1.29 0.01 7.75-0.14 15.53 1.95 22.14 6.02 21.29 11.47 24.67 43.43 8.79 60.75-16.95 21.01-54.51 15.07-65.61-9.02-13.36-23.67 6.5-57.25 33.39-57.76zm-286.64 93.13c0.43-0.01 0.86-0.01 1.29 0 7.84-0.1 15.73 2.01 22.38 6.18 21.6 11.85 24.38 44.76 7.48 61.73-17.48 19.91-53.87 13.28-64.68-10.39-13.14-23.69 6.73-57.01 33.53-57.52zm221.93 0.05c7.48 0.07 14.89 2.39 21.17 6.43 21.19 11.97 23.75 44.29 7.25 61.21-17.31 20.09-53.71 13.66-64.75-9.86-13.69-24.1 7.18-58.55 34.83-57.76 0.5-0.02 1-0.03 1.5-0.02zm-110.01 35.5c7.64 0.12 15.26 2.34 21.69 6.5 21.26 12 23.75 44.43 7.14 61.32-17.18 19.74-52.82 13.65-64.3-9.23-14.22-23.97 6.19-58.78 33.94-58.59 0.51-0.01 1.02-0.01 1.53 0z" transform="translate(2737 -78.351)" stroke="#000" stroke-linecap="round" stroke-width="20.9" fill="#c93636"/>
</g>
</svg>
